<svg width="45" height="43" viewBox="0 0 45 43" fill="none" xmlns="http://www.w3.org/2000/svg">
<g filter="url(#filter0_d)">
<path d="M35.0083 16.3412L35.8798 15.4909C36.6643 14.7238 37.2462 13.7698 37.5297 12.7114C38.0431 10.7749 37.4674 9.08647 35.9492 7.17564L34.6912 5.71292C33.0332 3.93073 31.4457 3.1041 29.4584 3.32678C28.3695 3.44867 27.3392 3.88132 26.4633 4.54219L25.4922 5.27664C24.864 5.74977 24.2725 6.27529 23.7314 6.8498L23.6095 6.97984L8.62378 19.8684C7.78366 20.6581 7.46482 21.2095 6.98585 22.1085C6.24007 23.6486 6.63331 25.1832 9.11419 28.0969L9.99855 29.1251C12.5082 32.0141 13.9715 32.6284 15.601 32.1255C16.5616 31.7865 17.1503 31.5489 18.061 30.8412L33.042 17.9568L33.1888 17.8557C33.8295 17.3971 34.4376 16.8909 35.0083 16.3412ZM31.4686 17.496L27.6534 19.6603C27.3953 19.8067 27.1413 19.9579 26.8915 20.1139C25.0507 16.7505 23.6391 14.9831 20.4976 12.6796C20.6893 12.456 20.8768 12.2275 21.0602 11.9942L23.771 8.54584C24.3559 7.79918 25.3893 7.57388 26.2304 8.01792C27.3446 8.6049 28.3825 9.50109 29.6042 10.8439L30.0609 11.3749C31.2058 12.7838 31.9359 13.953 32.3454 15.1377C32.6717 16.0413 32.2943 17.0293 31.4686 17.496Z" fill="#F2F2F2"/>
<path d="M32.3284 4.40238L26.7996 8.35964L26.8494 8.41757L32.5072 4.66852C32.4117 4.55749 32.3363 4.47955 32.3284 4.40238Z" fill="#E7E7E7"/>
<path d="M36.8913 9.70781L32.1513 14.5823L32.1015 14.5244L36.6591 9.49603C36.7504 9.60223 36.8162 9.68843 36.8913 9.70781Z" fill="#E7E7E7"/>
<path d="M17.7681 28.7248C17.1922 29.22 16.6728 29.5576 16.174 29.7346C16.2041 29.692 16.2258 29.6397 16.2435 29.5825C16.0634 29.645 15.8889 29.6943 15.7191 29.7396C15.1739 29.8725 14.6008 29.7691 14.1177 29.4792C13.3633 29.0194 12.7717 28.4868 12.0041 27.7109C11.8112 27.5157 11.632 27.317 11.4535 27.1094L11.3373 26.9743C11.1629 26.7715 10.9933 26.5646 10.8375 26.3543C10.1809 25.4745 9.74287 24.8098 9.397 23.9903C9.1778 23.4734 9.17028 22.892 9.37914 22.368C9.44512 22.2021 9.52421 22.0417 9.61355 21.8641C9.56815 21.8695 9.5269 21.8798 9.48086 21.8942C9.72163 21.4268 10.1194 20.9671 10.6808 20.4843C10.9255 20.2738 11.1875 20.0737 11.4578 19.8832L18.4745 28.0416C18.2492 28.2942 18.0128 28.5143 17.7681 28.7248Z" fill="#4B545A"/>
<path d="M17.7681 28.7248C17.1922 29.22 16.6728 29.5576 16.174 29.7346C16.2041 29.692 16.2258 29.6397 16.2435 29.5825C16.0634 29.645 15.8889 29.6943 15.7191 29.7396C15.1739 29.8725 14.6008 29.7691 14.1177 29.4792C13.3633 29.0194 12.7717 28.4868 12.0041 27.7109C11.8112 27.5157 11.632 27.317 11.4535 27.1094L11.3373 26.9743C11.1629 26.7715 10.9933 26.5646 10.8375 26.3543C10.1809 25.4745 9.74287 24.8098 9.397 23.9903C9.1778 23.4734 9.17028 22.892 9.37914 22.368C9.44512 22.2021 9.52421 22.0417 9.61355 21.8641C9.56815 21.8695 9.5269 21.8798 9.48086 21.8942C9.72163 21.4268 10.1194 20.9671 10.6808 20.4843C10.9255 20.2738 11.1875 20.0737 11.4578 19.8832L18.4745 28.0416C18.2492 28.2942 18.0128 28.5143 17.7681 28.7248Z" fill="#4388FC" fill-opacity="0.1"/>
<path d="M17.7681 28.7248C17.1922 29.22 16.6728 29.5576 16.174 29.7346C16.2041 29.692 16.2258 29.6397 16.2435 29.5825C16.0634 29.645 15.8889 29.6943 15.7191 29.7396C15.1739 29.8725 14.6008 29.7691 14.1177 29.4792C13.3633 29.0194 12.7717 28.4868 12.0041 27.7109C11.8112 27.5157 11.632 27.317 11.4535 27.1094L11.3373 26.9743C11.1629 26.7715 10.9933 26.5646 10.8375 26.3543C10.1809 25.4745 9.74287 24.8098 9.397 23.9903C9.1778 23.4734 9.17028 22.892 9.37914 22.368C9.44512 22.2021 9.52421 22.0417 9.61355 21.8641C9.56815 21.8695 9.5269 21.8798 9.48086 21.8942C9.72163 21.4268 10.1194 20.9671 10.6808 20.4843C10.9255 20.2738 11.1875 20.0737 11.4578 19.8832L18.4745 28.0416C18.2492 28.2942 18.0128 28.5143 17.7681 28.7248Z" fill="url(#paint0_radial)" fill-opacity="0.77"/>
<path d="M12.8351 18.9508C12.3853 19.3208 11.9212 19.7032 11.409 20.1269C11.3706 20.1599 11.3239 20.1833 11.2738 20.1929C11.0496 20.2429 10.8972 20.1724 10.773 19.9601C10.6262 19.6244 10.7547 19.2788 11.1783 18.8977L23.0127 8.26588C23.0223 8.25763 23.0319 8.24937 23.0415 8.24112C23.0409 8.25007 23.0354 8.26316 23.03 8.27624L22.8817 8.64734C22.849 8.72583 22.8074 8.80362 22.7526 8.87588L21.0201 11.0546C19.7926 12.5974 18.6209 13.8655 17.4187 14.9331C15.6393 16.6398 14.3421 17.7135 12.8351 18.9508Z" fill="#4B545A"/>
<path d="M12.8351 18.9508C12.3853 19.3208 11.9212 19.7032 11.409 20.1269C11.3706 20.1599 11.3239 20.1833 11.2738 20.1929C11.0496 20.2429 10.8972 20.1724 10.773 19.9601C10.6262 19.6244 10.7547 19.2787 11.1783 18.8977L23.0127 8.26587C23.0223 8.25762 23.0319 8.24937 23.0415 8.24111C23.0409 8.25007 23.0354 8.26315 23.03 8.27623L22.8817 8.64734C22.849 8.72582 22.8074 8.80361 22.7526 8.87587L21.0201 11.0546C19.7926 12.5974 18.6209 13.8655 17.4187 14.9331C15.6393 16.6398 14.3421 17.7135 12.8351 18.9508Z" fill="#4388FC" fill-opacity="0.1"/>
<path d="M12.8351 18.9508C12.3853 19.3208 11.9212 19.7032 11.409 20.1269C11.3706 20.1599 11.3239 20.1833 11.2738 20.1929C11.0496 20.2429 10.8972 20.1724 10.773 19.9601C10.6262 19.6244 10.7547 19.2787 11.1783 18.8977L23.0127 8.26587C23.0223 8.25762 23.0319 8.24937 23.0415 8.24111C23.0409 8.25007 23.0354 8.26315 23.03 8.27623L22.8817 8.64734C22.849 8.72582 22.8074 8.80361 22.7526 8.87587L21.0201 11.0546C19.7926 12.5974 18.6209 13.8655 17.4187 14.9331C15.6393 16.6398 14.3421 17.7135 12.8351 18.9508Z" fill="url(#paint1_radial)" fill-opacity="0.77"/>
<path d="M15.8559 14.6983C15.953 15.1607 16.0899 15.446 16.3948 15.8976L17.1041 15.2372C16.9853 14.7012 16.9447 14.2657 16.9922 13.6706L15.8559 14.6983Z" fill="#4B545A"/>
<path d="M21.8949 9.95572L21.6635 9.48285L23.0158 8.26944C23.0254 8.26119 23.035 8.25294 23.0446 8.24468C23.0439 8.25364 23.0385 8.26672 23.033 8.2798L22.8847 8.65091C22.852 8.7294 22.8104 8.80718 22.7557 8.87944L21.8949 9.95572Z" fill="#4B545A"/>
<path d="M19.5939 26.8102C19.1607 27.1995 18.7131 27.6013 18.2176 28.0443C18.1792 28.0773 18.1491 28.1199 18.1322 28.1681C18.0492 28.3823 18.096 28.5435 18.2874 28.6981C18.5973 28.8934 18.9583 28.8181 19.3985 28.4563L31.6813 18.3459C31.6909 18.3377 31.7005 18.3294 31.7101 18.3212C31.7012 18.3205 31.6874 18.3239 31.6737 18.3273L31.2846 18.4184C31.2021 18.439 31.1189 18.4685 31.0393 18.5118L28.6121 19.9022C26.903 20.8851 25.4739 21.8539 24.2384 22.8828C22.2942 24.3786 21.0427 25.5053 19.5939 26.8102Z" fill="#4B545A"/>
<path d="M19.594 26.8102C19.1608 27.1995 18.7133 27.6012 18.2177 28.0442C18.1793 28.0772 18.1493 28.1199 18.1323 28.1681C18.0493 28.3822 18.0962 28.5435 18.2875 28.698C18.5975 28.8934 18.9584 28.8181 19.3986 28.4563L31.6815 18.3459C31.6911 18.3376 31.7006 18.3294 31.7102 18.3211C31.7013 18.3204 31.6875 18.3238 31.6738 18.3273L31.2847 18.4184C31.2022 18.4389 31.119 18.4684 31.0394 18.5117L28.6123 19.9022C26.9031 20.885 25.474 21.8538 24.2386 22.8827C22.2944 24.3785 21.0429 25.5053 19.594 26.8102Z" fill="#4388FC" fill-opacity="0.1"/>
<path d="M19.594 26.8102C19.1608 27.1995 18.7133 27.6012 18.2177 28.0442C18.1793 28.0772 18.1493 28.1199 18.1323 28.1681C18.0493 28.3822 18.0962 28.5435 18.2875 28.698C18.5975 28.8934 18.9584 28.8181 19.3986 28.4563L31.6815 18.3459C31.6911 18.3376 31.7006 18.3294 31.7102 18.3211C31.7013 18.3204 31.6875 18.3238 31.6738 18.3273L31.2847 18.4184C31.2022 18.4389 31.119 18.4684 31.0394 18.5117L28.6123 19.9022C26.9031 20.885 25.474 21.8538 24.2386 22.8827C22.2944 24.3785 21.0429 25.5053 19.594 26.8102Z" fill="url(#paint2_radial)" fill-opacity="0.77"/>
<path d="M24.2459 24.4636C23.8033 24.2984 23.5416 24.1203 23.1407 23.7513L23.8998 23.1488C24.4121 23.3465 24.8365 23.4517 25.4321 23.4938L24.2459 24.4636Z" fill="#4B545A"/>
<path d="M29.8375 19.2012L30.2704 19.5008L31.6725 18.3453C31.6821 18.337 31.6917 18.3288 31.7013 18.3205C31.6923 18.3198 31.6786 18.3232 31.6649 18.3267L31.2757 18.4178C31.1932 18.4383 31.1101 18.4679 31.0305 18.5112L29.8375 19.2012Z" fill="#4B545A"/>
<path d="M22.4918 8.99975C22.4016 9.12776 22.3302 9.18071 22.1991 9.25149L21.8545 8.85081L22.1472 8.59907L22.4918 8.99975Z" fill="#594F4F"/>
<path d="M22.1236 8.7368L21.7164 9.07864C21.6732 9.11578 21.6099 9.11983 21.5581 9.08877L20.3158 8.34318C20.2771 8.31764 20.2631 8.26251 20.2884 8.22397C20.3287 8.16409 20.3739 8.10008 20.4417 8.03335C20.4855 7.98725 20.5377 7.95081 20.5761 7.91779C20.6851 7.84078 20.8143 7.79686 20.9451 7.79359C21.0621 7.79374 21.1915 7.80837 21.3398 7.87401C21.5274 7.95623 21.7277 8.11148 21.8944 8.29563C21.9739 8.37839 22.0646 8.49355 22.1346 8.58458C22.1761 8.63285 22.1668 8.69966 22.1236 8.7368Z" fill="#594F4F"/>
<path d="M30.8742 18.7462C30.7341 18.8162 30.6711 18.8788 30.5815 18.9979L30.9261 19.3986L31.2188 19.1468L30.8742 18.7462Z" fill="#594F4F"/>
<path d="M31.0744 19.1536L30.6754 19.5051C30.6322 19.5422 30.6188 19.6042 30.6417 19.66L31.1931 20.9999C31.2125 21.042 31.2649 21.0641 31.3068 21.0448C31.3721 21.0139 31.4421 20.9789 31.5182 20.9218C31.5704 20.8854 31.6142 20.8393 31.6526 20.8062C31.7451 20.7099 31.8078 20.5888 31.8306 20.46C31.848 20.3443 31.8529 20.2141 31.8102 20.0577C31.7569 19.8599 31.6334 19.6386 31.4763 19.4462C31.4063 19.3552 31.306 19.2483 31.2265 19.1655C31.185 19.1172 31.1223 19.1123 31.0744 19.1536Z" fill="#594F4F"/>
<path d="M31.8441 4.18926C30.349 3.70305 29.1304 3.75176 27.7255 4.44776L28.3013 3.95252C28.642 3.6595 29.0679 3.49473 29.518 3.49394C30.3908 3.4992 31.0824 3.64338 31.8441 4.18926Z" fill="url(#paint3_linear)"/>
<path d="M31.8441 4.18926C30.349 3.70305 29.1304 3.75176 27.7255 4.44776L28.3013 3.95252C28.642 3.6595 29.0679 3.49473 29.518 3.49394C30.3908 3.4992 31.0824 3.64338 31.8441 4.18926Z" fill="url(#paint4_linear)"/>
<path d="M27.7337 4.44717L28.3047 3.95606C28.6454 3.66304 29.0714 3.49827 29.5215 3.49748C30.39 3.49791 31.0817 3.6421 31.8434 4.18798C30.3483 3.70176 29.1345 3.74634 27.7337 4.44717Z" fill="#D5E3F0"/>
<path d="M36.9933 10.1745C37.2503 11.7255 37.0198 12.9231 36.1214 14.2081L36.6973 13.7128C37.038 13.4198 37.2646 13.0233 37.3328 12.5784C37.4623 11.7196 37.4191 11.0093 36.9933 10.1745Z" fill="url(#paint5_linear)"/>
<path d="M36.9933 10.1745C37.2503 11.7255 37.0198 12.9231 36.1214 14.2081L36.6973 13.7128C37.038 13.4198 37.2646 13.0233 37.3328 12.5784C37.4623 11.7196 37.4191 11.0093 36.9933 10.1745Z" fill="url(#paint6_linear)"/>
<path d="M36.1255 14.2045L36.6965 13.7134C37.0372 13.4204 37.2638 13.0239 37.332 12.579C37.4663 11.716 37.4231 11.0057 36.9973 10.171C37.2496 11.7261 37.0239 12.9196 36.1255 14.2045Z" fill="#D5E3F0"/>
<path d="M7.11365 25.2653C6.48971 23.9963 6.5218 23.0533 6.97715 22.1073C7.1177 21.8437 7.24736 21.6062 7.37573 21.3866L7.42998 21.5079C7.60739 21.918 7.59646 22.3809 7.40561 22.7802C7.0934 23.4267 7.07261 23.8393 7.30137 24.7847C7.34629 24.9728 7.26941 25.1649 7.11365 25.2653Z" fill="#D8394C"/>
<path d="M12.49 31.5163C13.6514 32.3231 14.5886 32.4324 15.592 32.1237C15.8737 32.0242 16.1279 31.9315 16.3643 31.8375L16.2524 31.7657C15.8735 31.5289 15.4142 31.4705 14.9908 31.5994C14.3049 31.8114 13.8939 31.7702 12.9933 31.4026C12.814 31.33 12.6126 31.3773 12.49 31.5163Z" fill="#D8394C"/>
<path d="M28.8941 12.3868C30.0681 13.8294 30.7638 14.978 31.1509 16.0979C31.3184 16.5838 31.2713 17.1114 31.0276 17.5561L27.5694 19.5142C27.3628 19.6331 27.1514 19.7561 26.9489 19.8798C25.9578 18.0868 25.1372 16.8609 24.2279 15.8037C23.3062 14.732 22.2204 13.751 20.7335 12.6531C20.8862 12.4715 21.0436 12.2857 21.1879 12.0943L23.6456 8.97283C24.1217 8.79847 24.6504 8.83085 25.1058 9.0691C26.1593 9.62432 27.1819 10.4833 28.4374 11.8558L28.8941 12.3868ZM29.0189 12.2795L28.5622 11.7485C27.3405 10.4056 26.2937 9.50876 25.1884 8.92248C24.6682 8.64763 24.0666 8.62756 23.552 8.83493L21.0643 11.9991C20.8809 12.2324 20.6934 12.4609 20.5017 12.6845C22.0362 13.8087 23.1524 14.8055 24.1115 15.9207C25.1204 17.0937 25.9489 18.3968 26.8998 20.1236C27.1496 19.9676 27.4035 19.8164 27.6616 19.67L31.1576 17.6878C31.4355 17.2053 31.5098 16.6123 31.3159 16.0568C30.894 14.8576 30.1638 13.6883 29.0189 12.2795Z" fill="black"/>
<path d="M31.1492 17.6783L27.6532 19.6605C27.3951 19.8069 27.1412 19.9581 26.8914 20.1141C25.0506 16.7508 23.639 14.9834 20.4975 12.6799C20.6892 12.4562 20.8767 12.2278 21.0601 11.9945L23.543 8.83441C24.0617 8.63187 24.6591 8.64711 25.1793 8.92195C26.2936 9.50894 27.3315 10.4051 28.5532 11.7479L29.0099 12.279C30.1548 13.6878 30.8849 14.8571 31.2944 16.0418C31.5014 16.6028 31.4271 17.1958 31.1492 17.6783Z" fill="#4B545A"/>
<path d="M31.1492 17.6783L27.6532 19.6605C27.3952 19.8069 27.1412 19.9581 26.8914 20.1141C25.0506 16.7508 23.639 14.9834 20.4975 12.6798C20.6892 12.4562 20.8767 12.2277 21.0601 11.9945L23.543 8.83439C24.0617 8.63185 24.6591 8.64709 25.1793 8.92194C26.2936 9.50892 27.3315 10.4051 28.5532 11.7479L29.0099 12.2789C30.1548 13.6878 30.8849 14.8571 31.2944 16.0417C31.5014 16.6028 31.4271 17.1958 31.1492 17.6783Z" fill="#4388FC" fill-opacity="0.1"/>
<path d="M31.1492 17.6783L27.6532 19.6605C27.3952 19.8069 27.1412 19.9581 26.8914 20.1141C25.0506 16.7508 23.639 14.9834 20.4975 12.6798C20.6892 12.4562 20.8767 12.2277 21.0601 11.9945L23.543 8.83439C24.0617 8.63185 24.6591 8.64709 25.1793 8.92194C26.2936 9.50892 27.3315 10.4051 28.5532 11.7479L29.0099 12.2789C30.1548 13.6878 30.8849 14.8571 31.2944 16.0417C31.5014 16.6028 31.4271 17.1958 31.1492 17.6783Z" fill="url(#paint7_radial)" fill-opacity="0.77"/>
<path d="M31.4684 17.4961C32.2942 17.0295 32.6716 16.0414 32.3584 15.1434C31.9447 13.9539 31.2139 12.7936 30.0738 11.3806L29.6171 10.8496C28.3954 9.50677 27.3486 8.60989 26.2433 8.0236C25.4023 7.57957 24.3689 7.80487 23.7839 8.55153L23.5561 8.83987C24.0748 8.63733 24.6722 8.65257 25.1924 8.92741C26.3067 9.5144 27.3446 10.4106 28.5662 11.7534L29.023 12.2844C30.1679 13.6933 30.898 14.8625 31.3075 16.0472C31.5014 16.6027 31.4313 17.2006 31.1492 17.6783L31.4684 17.4961Z" fill="#4B545A"/>
<path d="M36.9357 9.59421C36.9309 9.59834 36.9047 9.58728 36.859 9.53418L32.4995 4.46534C32.4538 4.41224 32.4516 4.38055 32.4516 4.38055C32.4564 4.37642 32.4935 4.36131 32.5817 4.38623L32.6479 4.40491C33.0455 4.50807 33.337 4.58491 33.7316 4.7914C34.0495 5.06391 34.3647 5.37224 34.6864 5.7171L35.9444 7.17982C36.2372 7.54943 36.4949 7.90729 36.7168 8.26234C36.7168 8.26234 36.7168 8.26234 36.721 8.26717C36.8661 8.68826 36.8984 8.98796 36.9409 9.39651L36.9495 9.46472C36.961 9.55567 36.9405 9.59008 36.9357 9.59421Z" fill="#4B545A"/>
<path d="M12.1477 19.4915L18.9568 27.4086C18.9568 27.4086 18.4473 27.9579 17.5528 28.1542C15.5864 28.5856 10.3855 22.3928 11.1797 20.744C11.5769 19.9193 12.1477 19.4915 12.1477 19.4915Z" fill="#F2F2F2"/>
</g>
<defs>
<filter id="filter0_d" x="0" y="0" width="44.8627" height="43.0589" filterUnits="userSpaceOnUse" color-interpolation-filters="sRGB">
<feFlood flood-opacity="0" result="BackgroundImageFix"/>
<feColorMatrix in="SourceAlpha" type="matrix" values="0 0 0 0 0 0 0 0 0 0 0 0 0 0 0 0 0 0 127 0"/>
<feOffset dy="4"/>
<feGaussianBlur stdDeviation="2"/>
<feColorMatrix type="matrix" values="0 0 0 0 0 0 0 0 0 0 0 0 0 0 0 0 0 0 0.3 0"/>
<feBlend mode="normal" in2="BackgroundImageFix" result="effect1_dropShadow"/>
<feBlend mode="normal" in="SourceGraphic" in2="effect1_dropShadow" result="shape"/>
</filter>
<radialGradient id="paint0_radial" cx="0" cy="0" r="1" gradientUnits="userSpaceOnUse" gradientTransform="translate(15.4031 23.9561) rotate(139.303) scale(5.41139 17.9882)">
<stop stop-color="white" stop-opacity="0.8"/>
<stop offset="1" stop-color="white" stop-opacity="0.01"/>
</radialGradient>
<radialGradient id="paint1_radial" cx="0" cy="0" r="1" gradientUnits="userSpaceOnUse" gradientTransform="translate(9.67773 20.7403) rotate(139.336) scale(18.5329 2.36963)">
<stop stop-color="white" stop-opacity="0.8"/>
<stop offset="1" stop-color="white" stop-opacity="0.01"/>
</radialGradient>
<radialGradient id="paint2_radial" cx="0" cy="0" r="1" gradientUnits="userSpaceOnUse" gradientTransform="translate(17.3655 29.6796) rotate(139.336) scale(18.5329 2.37423)">
<stop stop-color="white" stop-opacity="0.8"/>
<stop offset="1" stop-color="white" stop-opacity="0.01"/>
</radialGradient>
<linearGradient id="paint3_linear" x1="28.9781" y1="3.37534" x2="30.601" y2="5.26233" gradientUnits="userSpaceOnUse">
<stop offset="0.1548" stop-color="#A1A1A1"/>
<stop offset="0.9205" stop-color="white"/>
</linearGradient>
<linearGradient id="paint4_linear" x1="28.9781" y1="3.37534" x2="30.601" y2="5.26233" gradientUnits="userSpaceOnUse">
<stop stop-color="#333333"/>
<stop offset="0.1883"/>
<stop offset="0.3849" stop-color="#333333"/>
<stop offset="0.5983"/>
<stop offset="0.8033" stop-color="#333333"/>
<stop offset="1"/>
</linearGradient>
<linearGradient id="paint5_linear" x1="37.3721" y1="13.1333" x2="35.7491" y2="11.2463" gradientUnits="userSpaceOnUse">
<stop offset="0.1548" stop-color="#A1A1A1"/>
<stop offset="0.9205" stop-color="white"/>
</linearGradient>
<linearGradient id="paint6_linear" x1="37.3721" y1="13.1333" x2="35.7491" y2="11.2463" gradientUnits="userSpaceOnUse">
<stop stop-color="#333333"/>
<stop offset="0.1883"/>
<stop offset="0.3849" stop-color="#333333"/>
<stop offset="0.5983"/>
<stop offset="0.8033" stop-color="#333333"/>
<stop offset="1"/>
</linearGradient>
<radialGradient id="paint7_radial" cx="0" cy="0" r="1" gradientUnits="userSpaceOnUse" gradientTransform="translate(23.3512 16.8034) rotate(139.961) scale(7.34026 18.3893)">
<stop stop-color="white" stop-opacity="0.8"/>
<stop offset="1" stop-color="white" stop-opacity="0.01"/>
</radialGradient>
</defs>
</svg>
