<svg width="54" height="54" viewBox="0 0 54 54" fill="none" xmlns="http://www.w3.org/2000/svg">
<g filter="url(#filter0_d)">
<path d="M44.7763 23.0701L46.0066 21.8696C47.1141 20.7867 47.9357 19.4398 48.3359 17.9456C49.0606 15.2118 48.2479 12.8281 46.1046 10.1305L44.3286 8.06543C41.9879 5.5494 39.7467 4.38239 36.9411 4.69676C35.4038 4.86885 33.9492 5.47965 32.7128 6.41264L31.3418 7.44951C30.4548 8.11745 29.6198 8.85937 28.8559 9.67043L28.6838 9.85402L7.5275 28.0496C6.34146 29.1646 5.89133 29.943 5.21513 31.2122C4.16227 33.3864 4.71743 35.5529 8.21986 39.6663L9.46835 41.118C13.0114 45.1964 15.0773 46.0637 17.3777 45.3538C18.7338 44.8752 19.565 44.5397 20.8507 43.5407L42.0002 25.3509L42.2075 25.2082C43.112 24.5607 43.9705 23.846 44.7763 23.0701ZM39.779 24.7003L34.3928 27.7558C34.0284 27.9625 33.6699 28.176 33.3173 28.3963C30.7184 23.648 28.7257 21.1528 24.2906 17.9008C24.5612 17.5851 24.8259 17.2625 25.0848 16.9332L28.9118 12.0649C29.7376 11.0107 31.1965 10.6927 32.3838 11.3195C33.9569 12.1482 35.4222 13.4134 37.1469 15.3092L37.7916 16.0588C39.408 18.0478 40.4388 19.6985 41.0169 21.371C41.4776 22.6466 40.9448 24.0415 39.779 24.7003Z" fill="#1EE26C"/>
<path d="M40.993 6.21526L33.1876 11.802L33.2579 11.8838L41.2454 6.59098C41.1106 6.43423 41.0042 6.3242 40.993 6.21526Z" fill="#E7E7E7"/>
<path d="M47.4348 13.7052L40.7431 20.5868L40.6727 20.5051L47.1069 13.4062C47.2359 13.5562 47.3288 13.6779 47.4348 13.7052Z" fill="#E7E7E7"/>
<path d="M20.4373 40.5526C19.6244 41.2517 18.8911 41.7283 18.1869 41.9783C18.2293 41.918 18.2601 41.8442 18.285 41.7635C18.0308 41.8517 17.7843 41.9214 17.5446 41.9852C16.775 42.1729 15.9659 42.0269 15.2839 41.6176C14.2189 40.9685 13.3837 40.2166 12.3 39.1212C12.0277 38.8456 11.7747 38.5652 11.5227 38.2721L11.3586 38.0813C11.1124 37.795 10.873 37.503 10.653 37.2061C9.72609 35.9639 9.10765 35.0256 8.61937 33.8687C8.30992 33.1389 8.2993 32.3181 8.59415 31.5784C8.68731 31.3441 8.79897 31.1176 8.92509 30.8669C8.861 30.8746 8.80276 30.8891 8.73776 30.9094C9.07768 30.2495 9.63918 29.6006 10.4318 28.9189C10.7773 28.6218 11.1471 28.3393 11.5287 28.0704L21.4346 39.5882C21.1166 39.9447 20.7828 40.2554 20.4373 40.5526Z" fill="#4B545A"/>
<path d="M20.4373 40.5526C19.6244 41.2517 18.8911 41.7283 18.1869 41.9783C18.2293 41.918 18.2601 41.8442 18.285 41.7635C18.0308 41.8517 17.7843 41.9214 17.5446 41.9852C16.775 42.1729 15.9659 42.0269 15.2839 41.6176C14.2189 40.9685 13.3837 40.2166 12.3 39.1212C12.0277 38.8456 11.7747 38.5652 11.5227 38.2721L11.3586 38.0813C11.1124 37.795 10.873 37.503 10.653 37.2061C9.72609 35.9639 9.10765 35.0256 8.61937 33.8687C8.30992 33.1389 8.2993 32.3181 8.59415 31.5784C8.68731 31.3441 8.79897 31.1176 8.92509 30.8669C8.861 30.8746 8.80276 30.8891 8.73776 30.9094C9.07768 30.2495 9.63918 29.6006 10.4318 28.9189C10.7773 28.6218 11.1471 28.3393 11.5287 28.0704L21.4346 39.5882C21.1166 39.9447 20.7828 40.2554 20.4373 40.5526Z" fill="#4388FC" fill-opacity="0.1"/>
<path d="M20.4373 40.5526C19.6244 41.2517 18.8911 41.7283 18.1869 41.9783C18.2293 41.918 18.2601 41.8442 18.285 41.7635C18.0308 41.8517 17.7843 41.9214 17.5446 41.9852C16.775 42.1729 15.9659 42.0269 15.2839 41.6176C14.2189 40.9685 13.3837 40.2166 12.3 39.1212C12.0277 38.8456 11.7747 38.5652 11.5227 38.2721L11.3586 38.0813C11.1124 37.795 10.873 37.503 10.653 37.2061C9.72609 35.9639 9.10765 35.0256 8.61937 33.8687C8.30992 33.1389 8.2993 32.3181 8.59415 31.5784C8.68731 31.3441 8.79897 31.1176 8.92509 30.8669C8.861 30.8746 8.80276 30.8891 8.73776 30.9094C9.07768 30.2495 9.63918 29.6006 10.4318 28.9189C10.7773 28.6218 11.1471 28.3393 11.5287 28.0704L21.4346 39.5882C21.1166 39.9447 20.7828 40.2554 20.4373 40.5526Z" fill="url(#paint0_radial)" fill-opacity="0.77"/>
<path d="M13.4729 26.7541C12.838 27.2765 12.1827 27.8163 11.4596 28.4145C11.4054 28.4611 11.3395 28.4941 11.2687 28.5076C10.9522 28.5782 10.737 28.4787 10.5617 28.1789C10.3545 27.705 10.5359 27.2171 11.1339 26.6791L27.8413 11.6695C27.8549 11.6578 27.8684 11.6462 27.882 11.6345C27.881 11.6472 27.8734 11.6656 27.8657 11.6841L27.6563 12.208C27.6102 12.3188 27.5514 12.4286 27.4741 12.5307L25.0283 15.6065C23.2953 17.7846 21.6411 19.5748 19.9439 21.082C17.4317 23.4915 15.6005 25.0073 13.4729 26.7541Z" fill="#4B545A"/>
<path d="M13.4729 26.7541C12.838 27.2765 12.1827 27.8163 11.4596 28.4145C11.4054 28.4611 11.3395 28.4941 11.2687 28.5076C10.9522 28.5782 10.737 28.4787 10.5617 28.1789C10.3545 27.705 10.5359 27.2171 11.1338 26.6791L27.8413 11.6695C27.8549 11.6578 27.8684 11.6462 27.882 11.6345C27.881 11.6472 27.8734 11.6656 27.8657 11.6841L27.6563 12.208C27.6102 12.3188 27.5514 12.4286 27.4741 12.5307L25.0283 15.6065C23.2953 17.7846 21.6411 19.5748 19.9439 21.082C17.4317 23.4915 15.6005 25.0073 13.4729 26.7541Z" fill="#4388FC" fill-opacity="0.1"/>
<path d="M13.4729 26.7541C12.838 27.2765 12.1827 27.8163 11.4596 28.4145C11.4054 28.4611 11.3395 28.4941 11.2687 28.5076C10.9522 28.5782 10.737 28.4787 10.5617 28.1789C10.3545 27.705 10.5359 27.2171 11.1338 26.6791L27.8413 11.6695C27.8549 11.6578 27.8684 11.6462 27.882 11.6345C27.881 11.6472 27.8734 11.6656 27.8657 11.6841L27.6563 12.208C27.6102 12.3188 27.5514 12.4286 27.4741 12.5307L25.0283 15.6065C23.2953 17.7846 21.6411 19.5748 19.9439 21.082C17.4317 23.4915 15.6005 25.0073 13.4729 26.7541Z" fill="url(#paint1_radial)" fill-opacity="0.77"/>
<path d="M17.7377 20.7505C17.8748 21.4032 18.0681 21.8061 18.4986 22.4437L19.4999 21.5113C19.3322 20.7545 19.2749 20.1398 19.3419 19.2996L17.7377 20.7505Z" fill="#4B545A"/>
<path d="M26.2648 14.0569L25.9381 13.3894L27.8472 11.6763C27.8607 11.6647 27.8743 11.653 27.8878 11.6414C27.8869 11.654 27.8792 11.6725 27.8715 11.6909L27.6621 12.2149C27.616 12.3257 27.5573 12.4355 27.48 12.5375L26.2648 14.0569Z" fill="#4B545A"/>
<path d="M23.0151 37.8495C22.4036 38.3991 21.7718 38.9663 21.0722 39.5917C21.018 39.6383 20.9755 39.6985 20.9515 39.7666C20.8344 40.0689 20.9006 40.2965 21.1707 40.5147C21.6083 40.7905 22.1179 40.6842 22.7393 40.1734L40.0798 25.8999C40.0934 25.8883 40.1069 25.8766 40.1204 25.8649C40.1078 25.864 40.0884 25.8688 40.069 25.8736L39.5196 26.0023C39.4032 26.0313 39.2858 26.073 39.1734 26.1341L35.7468 28.097C33.3339 29.4846 31.3163 30.8523 29.5722 32.3049C26.8274 34.4166 25.0606 36.0073 23.0151 37.8495Z" fill="#4B545A"/>
<path d="M23.0153 37.8494C22.4037 38.3991 21.7719 38.9662 21.0723 39.5916C21.0181 39.6382 20.9756 39.6985 20.9517 39.7665C20.8345 40.0688 20.9007 40.2965 21.1708 40.5147C21.6084 40.7904 22.118 40.6841 22.7394 40.1734L40.0799 25.8998C40.0935 25.8882 40.107 25.8765 40.1206 25.8649C40.1079 25.8639 40.0885 25.8687 40.0691 25.8736L39.5198 26.0022C39.4033 26.0312 39.2859 26.0729 39.1735 26.134L35.7469 28.097C33.334 29.4846 31.3164 30.8522 29.5723 32.3048C26.8275 34.4165 25.0607 36.0072 23.0153 37.8494Z" fill="#4388FC" fill-opacity="0.1"/>
<path d="M23.0153 37.8494C22.4037 38.3991 21.7719 38.9662 21.0723 39.5916C21.0181 39.6382 20.9756 39.6985 20.9517 39.7665C20.8345 40.0688 20.9007 40.2965 21.1708 40.5147C21.6084 40.7904 22.118 40.6841 22.7394 40.1734L40.0799 25.8998C40.0935 25.8882 40.107 25.8765 40.1206 25.8649C40.1079 25.8639 40.0885 25.8687 40.0691 25.8736L39.5198 26.0022C39.4033 26.0312 39.2859 26.0729 39.1735 26.134L35.7469 28.097C33.334 29.4846 31.3164 30.8522 29.5723 32.3048C26.8275 34.4165 25.0607 36.0072 23.0153 37.8494Z" fill="url(#paint2_radial)" fill-opacity="0.77"/>
<path d="M29.5827 34.5368C28.9578 34.3035 28.5884 34.0522 28.0224 33.5311L29.0941 32.6806C29.8173 32.9597 30.4165 33.1083 31.2573 33.1677L29.5827 34.5368Z" fill="#4B545A"/>
<path d="M37.4766 27.1073L38.0878 27.5302L40.0672 25.8989C40.0807 25.8872 40.0943 25.8756 40.1078 25.8639C40.0952 25.863 40.0758 25.8678 40.0564 25.8726L39.507 26.0013C39.3906 26.0303 39.2732 26.072 39.1608 26.1331L37.4766 27.1073Z" fill="#4B545A"/>
<path d="M27.1056 12.7054C26.9782 12.8861 26.8775 12.9609 26.6924 13.0608L26.2059 12.4951L26.6191 12.1397L27.1056 12.7054Z" fill="#594F4F"/>
<path d="M26.586 12.3341L26.0111 12.8167C25.9502 12.8692 25.8608 12.8749 25.7877 12.831L24.0339 11.7784C23.9793 11.7424 23.9595 11.6646 23.9952 11.6101C24.0521 11.5256 24.1159 11.4352 24.2116 11.341C24.2735 11.276 24.3471 11.2245 24.4013 11.1779C24.5553 11.0692 24.7377 11.0072 24.9222 11.0026C25.0874 11.0028 25.2702 11.0234 25.4795 11.1161C25.7443 11.2322 26.0271 11.4513 26.2625 11.7113C26.3748 11.8282 26.5028 11.9907 26.6016 12.1192C26.6602 12.1874 26.647 12.2817 26.586 12.3341Z" fill="#594F4F"/>
<path d="M38.9395 26.4656C38.7418 26.5646 38.6528 26.6529 38.5263 26.821L39.0128 27.3867L39.426 27.0313L38.9395 26.4656Z" fill="#594F4F"/>
<path d="M39.2225 27.0403L38.6594 27.5366C38.5984 27.589 38.5794 27.6765 38.6118 27.7553L39.3901 29.6469C39.4176 29.7063 39.4916 29.7375 39.5507 29.7103C39.6428 29.6667 39.7417 29.6172 39.8492 29.5366C39.9228 29.4852 39.9847 29.4201 40.0389 29.3735C40.1694 29.2375 40.258 29.0665 40.2902 28.8846C40.3147 28.7213 40.3216 28.5375 40.2613 28.3167C40.1862 28.0374 40.0118 27.725 39.79 27.4534C39.6912 27.3249 39.5496 27.174 39.4374 27.0571C39.3787 26.989 39.2903 26.9821 39.2225 27.0403Z" fill="#594F4F"/>
<path d="M40.3097 5.91384C38.199 5.22742 36.4785 5.29619 34.4952 6.27878L35.3081 5.57962C35.7891 5.16595 36.3904 4.93332 37.0258 4.9322C38.2579 4.93964 39.2344 5.14319 40.3097 5.91384Z" fill="url(#paint3_linear)"/>
<path d="M40.3097 5.91384C38.199 5.22742 36.4785 5.29619 34.4952 6.27878L35.3081 5.57962C35.7891 5.16595 36.3904 4.93332 37.0258 4.9322C38.2579 4.93964 39.2344 5.14319 40.3097 5.91384Z" fill="url(#paint4_linear)"/>
<path d="M34.508 6.27997L35.3142 5.58664C35.7952 5.17297 36.3965 4.94034 37.0319 4.93922C38.2581 4.93984 39.2346 5.14339 40.3099 5.91405C38.1992 5.22763 36.4856 5.29056 34.508 6.27997Z" fill="#D5E3F0"/>
<path d="M47.5779 14.3647C47.9408 16.5544 47.6153 18.2452 46.3471 20.0592L47.16 19.36C47.641 18.9464 47.9609 18.3866 48.0571 17.7585C48.24 16.546 48.179 15.5432 47.5779 14.3647Z" fill="url(#paint5_linear)"/>
<path d="M47.5779 14.3647C47.9408 16.5544 47.6153 18.2452 46.3471 20.0592L47.16 19.36C47.641 18.9464 47.9609 18.3866 48.0571 17.7585C48.24 16.546 48.179 15.5432 47.5779 14.3647Z" fill="url(#paint6_linear)"/>
<path d="M46.3538 20.0534L47.1599 19.3601C47.6409 18.9464 47.9609 18.3866 48.0571 17.7585C48.2467 16.5402 48.1857 15.5374 47.5846 14.3589C47.9407 16.5544 47.6221 18.2394 46.3538 20.0534Z" fill="#D5E3F0"/>
<path d="M5.39526 35.6696C4.5144 33.878 4.55971 32.5467 5.20255 31.2113C5.40098 30.8391 5.58403 30.5038 5.76526 30.1938L5.84184 30.365C6.0923 30.944 6.07688 31.5975 5.80744 32.1612C5.36667 33.0739 5.33732 33.6564 5.66028 34.9911C5.7237 35.2567 5.61516 35.5279 5.39526 35.6696Z" fill="#D8394C"/>
<path d="M12.9859 44.4952C14.6254 45.6342 15.9486 45.7886 17.3651 45.3529C17.7628 45.2124 18.1217 45.0815 18.4554 44.9487L18.2975 44.8474C17.7625 44.5131 17.114 44.4306 16.5164 44.6126C15.5481 44.9119 14.9677 44.8538 13.6964 44.3347C13.4432 44.2323 13.1589 44.299 12.9859 44.4952Z" fill="#D8394C"/>
<path d="M36.1446 17.4872C37.802 19.5239 38.7841 21.1454 39.3307 22.7265C39.5671 23.4124 39.5006 24.1573 39.1566 24.7851L34.2744 27.5494C33.9827 27.7173 33.6842 27.891 33.3984 28.0657C31.9992 25.5343 30.8407 23.8037 29.557 22.3111C28.2558 20.7982 26.7229 19.4133 24.6238 17.8632C24.8393 17.6068 25.0615 17.3445 25.2653 17.0744L28.7349 12.6675C29.4071 12.4214 30.1535 12.4671 30.7964 12.8035C32.2837 13.5873 33.7274 14.8 35.4999 16.7376L36.1446 17.4872ZM36.3208 17.3358L35.676 16.5861C33.9513 14.6904 32.4734 13.4242 30.913 12.5965C30.1786 12.2084 29.3292 12.1801 28.6028 12.4729L25.0907 16.94C24.8319 17.2693 24.5671 17.5918 24.2965 17.9076C26.4629 19.4946 28.0386 20.9019 29.3926 22.4763C30.817 24.1324 31.9866 25.9719 33.3291 28.4099C33.6817 28.1895 34.0402 27.9761 34.4046 27.7694L39.3402 24.971C39.7324 24.2898 39.8374 23.4526 39.5636 22.6684C38.9679 20.9754 37.9371 19.3247 36.3208 17.3358Z" fill="black"/>
<path d="M39.3284 24.9575L34.3928 27.7559C34.0285 27.9626 33.67 28.1761 33.3173 28.3964C30.7185 23.6481 28.7257 21.1529 24.2906 17.9009C24.5612 17.5852 24.8259 17.2626 25.0848 16.9333L28.5901 12.472C29.3224 12.1861 30.1659 12.2076 30.9003 12.5956C32.4733 13.4243 33.9386 14.6895 35.6633 16.5852L36.3081 17.3349C37.9244 19.3239 38.9552 20.9746 39.5333 22.6471C39.8256 23.4391 39.7207 24.2763 39.3284 24.9575Z" fill="#4B545A"/>
<path d="M39.3284 24.9575L34.3928 27.7558C34.0285 27.9625 33.67 28.176 33.3173 28.3963C30.7185 23.648 28.7257 21.1528 24.2906 17.9008C24.5612 17.5851 24.8259 17.2626 25.0848 16.9332L28.5901 12.472C29.3224 12.186 30.1659 12.2075 30.9003 12.5955C32.4733 13.4242 33.9386 14.6894 35.6633 16.5852L36.3081 17.3349C37.9244 19.3238 38.9552 20.9745 39.5333 22.6471C39.8256 23.4391 39.7207 24.2763 39.3284 24.9575Z" fill="#4388FC" fill-opacity="0.1"/>
<path d="M39.3284 24.9575L34.3928 27.7558C34.0285 27.9625 33.67 28.176 33.3173 28.3963C30.7185 23.648 28.7257 21.1528 24.2906 17.9008C24.5612 17.5851 24.8259 17.2626 25.0848 16.9332L28.5901 12.472C29.3224 12.186 30.1659 12.2075 30.9003 12.5955C32.4733 13.4242 33.9386 14.6894 35.6633 16.5852L36.3081 17.3349C37.9244 19.3238 38.9552 20.9745 39.5333 22.6471C39.8256 23.4391 39.7207 24.2763 39.3284 24.9575Z" fill="url(#paint7_radial)" fill-opacity="0.77"/>
<path d="M39.779 24.7004C40.9448 24.0416 41.4776 22.6467 41.0355 21.3789C40.4515 19.6996 39.4198 18.0615 37.8102 16.0667L37.1654 15.317C35.4407 13.4213 33.9628 12.1551 32.4024 11.3274C31.2151 10.7005 29.7562 11.0186 28.9303 12.0727L28.6087 12.4798C29.3409 12.1939 30.1844 12.2154 30.9188 12.6034C32.4919 13.4321 33.9571 14.6973 35.6819 16.593L36.3266 17.3427C37.943 19.3316 38.9738 20.9824 39.5519 22.6549C39.8256 23.4391 39.7266 24.2831 39.3284 24.9575L39.779 24.7004Z" fill="#4B545A"/>
<path d="M47.4975 13.5448C47.4907 13.5507 47.4537 13.535 47.3892 13.4601L41.2347 6.30407C41.1702 6.2291 41.1671 6.18436 41.1671 6.18436C41.1738 6.17854 41.2262 6.15721 41.3507 6.19238L41.4441 6.21876C42.0054 6.3644 42.417 6.47288 42.9741 6.76439C43.4228 7.14911 43.8679 7.58441 44.322 8.07126L46.098 10.1363C46.5114 10.6581 46.8752 11.1633 47.1885 11.6645C47.1885 11.6645 47.1885 11.6645 47.1944 11.6714C47.3992 12.2658 47.4449 12.6889 47.5049 13.2657L47.517 13.362C47.5332 13.4904 47.5042 13.539 47.4975 13.5448Z" fill="#4B545A"/>
<path d="M12.5027 27.5173L22.1156 38.6943C22.1156 38.6943 21.3963 39.4698 20.1335 39.7469C17.3574 40.356 10.015 31.6132 11.1361 29.2855C11.6969 28.1212 12.5027 27.5173 12.5027 27.5173Z" fill="#1EE26C"/>
</g>
<defs>
<filter id="filter0_d" x="-3" y="0" width="60.0414" height="57.495" filterUnits="userSpaceOnUse" color-interpolation-filters="sRGB">
<feFlood flood-opacity="0" result="BackgroundImageFix"/>
<feColorMatrix in="SourceAlpha" type="matrix" values="0 0 0 0 0 0 0 0 0 0 0 0 0 0 0 0 0 0 127 0" result="hardAlpha"/>
<feOffset dy="4"/>
<feGaussianBlur stdDeviation="2"/>
<feColorMatrix type="matrix" values="0 0 0 0 0 0 0 0 0 0 0 0 0 0 0 0 0 0 0.3 0"/>
<feBlend mode="normal" in2="BackgroundImageFix" result="effect1_dropShadow"/>
<feBlend mode="normal" in="SourceGraphic" in2="effect1_dropShadow" result="shape"/>
</filter>
<radialGradient id="paint0_radial" cx="0" cy="0" r="1" gradientUnits="userSpaceOnUse" gradientTransform="translate(17.0986 33.8204) rotate(139.303) scale(7.63961 25.3951)">
<stop stop-color="white" stop-opacity="0.8"/>
<stop offset="1" stop-color="white" stop-opacity="0.01"/>
</radialGradient>
<radialGradient id="paint1_radial" cx="0" cy="0" r="1" gradientUnits="userSpaceOnUse" gradientTransform="translate(9.01545 29.2804) rotate(139.336) scale(26.1641 3.34536)">
<stop stop-color="white" stop-opacity="0.8"/>
<stop offset="1" stop-color="white" stop-opacity="0.01"/>
</radialGradient>
<radialGradient id="paint2_radial" cx="0" cy="0" r="1" gradientUnits="userSpaceOnUse" gradientTransform="translate(19.8691 41.9004) rotate(139.336) scale(26.1641 3.35186)">
<stop stop-color="white" stop-opacity="0.8"/>
<stop offset="1" stop-color="white" stop-opacity="0.01"/>
</radialGradient>
<linearGradient id="paint3_linear" x1="36.2635" y1="4.76477" x2="38.5547" y2="7.42876" gradientUnits="userSpaceOnUse">
<stop offset="0.1548" stop-color="#A1A1A1"/>
<stop offset="0.9205" stop-color="white"/>
</linearGradient>
<linearGradient id="paint4_linear" x1="36.2635" y1="4.76477" x2="38.5547" y2="7.42876" gradientUnits="userSpaceOnUse">
<stop stop-color="#333333"/>
<stop offset="0.1883"/>
<stop offset="0.3849" stop-color="#333333"/>
<stop offset="0.5983"/>
<stop offset="0.8033" stop-color="#333333"/>
<stop offset="1"/>
</linearGradient>
<linearGradient id="paint5_linear" x1="48.1126" y1="18.5419" x2="45.8214" y2="15.8779" gradientUnits="userSpaceOnUse">
<stop offset="0.1548" stop-color="#A1A1A1"/>
<stop offset="0.9205" stop-color="white"/>
</linearGradient>
<linearGradient id="paint6_linear" x1="48.1126" y1="18.5419" x2="45.8214" y2="15.8779" gradientUnits="userSpaceOnUse">
<stop stop-color="#333333"/>
<stop offset="0.1883"/>
<stop offset="0.3849" stop-color="#333333"/>
<stop offset="0.5983"/>
<stop offset="0.8033" stop-color="#333333"/>
<stop offset="1"/>
</linearGradient>
<radialGradient id="paint7_radial" cx="0" cy="0" r="1" gradientUnits="userSpaceOnUse" gradientTransform="translate(28.3193 23.7223) rotate(139.961) scale(10.3627 25.9614)">
<stop stop-color="white" stop-opacity="0.8"/>
<stop offset="1" stop-color="white" stop-opacity="0.01"/>
</radialGradient>
</defs>
</svg>
