<svg width="64" height="64" viewBox="0 0 64 64" fill="none" xmlns="http://www.w3.org/2000/svg">
<path d="M32 3.7C20.398 3.7 11 12.744 11 23.891C11 35.552 23.024 50.38 28.875 56.905C30.542 58.764 33.457 58.764 35.125 56.905C40.976 50.38 53 35.552 53 23.891C53 12.744 43.602 3.7 32 3.7Z" fill="#0795FF"/>
<path d="M33.039 33.898C32.902 35.263 31.653 36.25 30.277 36.25H25.174C24.67 36.25 24.198 36.397 23.799 36.639C24.555 33.478 27.337 31.116 30.698 31.011C30.698 31.011 30.698 31.011 30.709 31.011C32.115 31.168 33.187 32.418 33.039 33.898Z" fill="url(#paint0_linear_563:337)"/>
<path d="M32 10C23.881 10 17.3 16.581 17.3 24.7C17.3 29.76 19.856 34.223 23.748 36.868L32 38.35L40.219 36.89C44.129 34.248 46.7 29.775 46.7 24.7C46.7 16.581 40.119 10 32 10Z" fill="white"/>
<path d="M32 28.9C35.4794 28.9 38.3 26.0794 38.3 22.6C38.3 19.1206 35.4794 16.3 32 16.3C28.5206 16.3 25.7 19.1206 25.7 22.6C25.7 26.0794 28.5206 28.9 32 28.9Z" fill="url(#paint1_linear_563:337)"/>
<path d="M40.253 36.859C40.253 36.859 40.253 36.859 40.253 36.869C37.901 38.465 35.055 39.4 32 39.4C28.945 39.4 26.099 38.465 23.747 36.869C23.747 36.859 23.747 36.859 23.747 36.859C24.44 33.51 27.401 31 30.95 31H33.05C36.599 31 39.56 33.51 40.253 36.859Z" fill="url(#paint2_linear_563:337)"/>
<path d="M37.307 16.884C37.63 16.508 37.884 16.15 38.101 15.862L38.089 15.849C38.212 15.677 38.299 15.478 38.299 15.251C38.299 14.671 37.829 14.201 37.249 14.201C37.058 14.201 36.724 14.345 36.724 14.345C34.821 15.035 33.781 13.151 30.949 13.151C28.629 13.151 26.749 14.561 26.749 16.301C26.749 16.467 26.781 16.626 26.814 16.784C26.141 17.259 25.699 18.039 25.699 18.926V22.6C26.911 22.6 27.945 21.724 28.144 20.529L28.419 18.879C28.585 18.941 28.76 18.999 28.945 19.053C29.543 19.298 30.219 19.451 30.948 19.451C31.152 19.451 31.342 19.441 31.535 19.432C31.69 19.438 31.839 19.451 31.998 19.451C33.386 19.451 34.639 19.232 35.578 18.88L35.853 20.53C36.052 21.725 37.086 22.601 38.298 22.601V18.926C38.3 18.095 37.908 17.365 37.307 16.884Z" fill="url(#paint3_linear_563:337)"/>
<path d="M33.039 33.898C32.902 35.263 31.653 36.25 30.277 36.25H25.174C24.67 36.25 24.198 36.397 23.799 36.639C24.555 33.478 27.337 31.116 30.698 31.011C30.698 31.011 30.698 31.011 30.709 31.011C32.115 31.168 33.187 32.418 33.039 33.898Z" fill="url(#paint4_linear_563:337)"/>
<defs>
<linearGradient id="paint0_linear_563:337" x1="28.426" y1="31.682" x2="28.426" y2="38.973" gradientUnits="userSpaceOnUse">
<stop stop-color="#00D772"/>
<stop offset="0.428" stop-color="#00CA71"/>
<stop offset="1" stop-color="#00B26E"/>
</linearGradient>
<linearGradient id="paint1_linear_563:337" x1="32" y1="41.172" x2="32" y2="25.675" gradientUnits="userSpaceOnUse">
<stop stop-color="#FDC462"/>
<stop offset="0.004" stop-color="#FDC462"/>
<stop offset="0.609" stop-color="#FDC380"/>
<stop offset="1" stop-color="#FDC28F"/>
</linearGradient>
<linearGradient id="paint2_linear_563:337" x1="32" y1="32.002" x2="32" y2="42.884" gradientUnits="userSpaceOnUse">
<stop stop-color="#00D772"/>
<stop offset="0.428" stop-color="#00CA71"/>
<stop offset="1" stop-color="#00B26E"/>
</linearGradient>
<linearGradient id="paint3_linear_563:337" x1="25.699" y1="17.876" x2="38.299" y2="17.876" gradientUnits="userSpaceOnUse">
<stop stop-color="#E1714D"/>
<stop offset="0.25" stop-color="#E2754E"/>
<stop offset="1" stop-color="#E47B50"/>
</linearGradient>
<linearGradient id="paint4_linear_563:337" x1="28.448" y1="26.484" x2="28.39" y2="49.488" gradientUnits="userSpaceOnUse">
<stop stop-color="#00DE8B"/>
<stop offset="0.478" stop-color="#00D189"/>
<stop offset="1" stop-color="#00BE86"/>
</linearGradient>
</defs>
</svg>
