<svg width="58" height="57" viewBox="0 0 58 57" fill="none" xmlns="http://www.w3.org/2000/svg">
<g filter="url(#filter0_d)">
<path d="M46.7763 23.0701L48.0066 21.8696C49.1141 20.7867 49.9357 19.4398 50.3359 17.9456C51.0606 15.2118 50.2479 12.8281 48.1046 10.1305L46.3286 8.06543C43.9879 5.5494 41.7467 4.38239 38.9411 4.69676C37.4038 4.86885 35.9492 5.47965 34.7128 6.41264L33.3418 7.44951C32.4548 8.11745 31.6198 8.85937 30.8559 9.67044L30.6838 9.85402L9.5275 28.0496C8.34146 29.1646 7.89132 29.943 7.21514 31.2122C6.16227 33.3864 6.71743 35.5529 10.2199 39.6663L11.4684 41.118C15.0114 45.1964 17.0773 46.0637 19.3777 45.3538C20.7338 44.8752 21.565 44.5397 22.8507 43.5407L44.0002 25.3509L44.2075 25.2082C45.112 24.5607 45.9705 23.846 46.7763 23.0701ZM41.779 24.7003L36.3928 27.7558C36.0284 27.9625 35.6699 28.176 35.3173 28.3963C32.7184 23.648 30.7257 21.1528 26.2906 17.9008C26.5612 17.5851 26.8259 17.2625 27.0848 16.9332L30.9118 12.0649C31.7376 11.0107 33.1965 10.6927 34.3838 11.3195C35.9569 12.1482 37.4222 13.4134 39.1469 15.3092L39.7916 16.0588C41.408 18.0478 42.4388 19.6985 43.0169 21.371C43.4776 22.6466 42.9448 24.0415 41.779 24.7003Z" fill="white"/>
<path d="M42.993 6.21526L35.1876 11.802L35.2579 11.8838L43.2454 6.59098C43.1106 6.43423 43.0042 6.3242 42.993 6.21526Z" fill="white"/>
<path d="M49.4348 13.7052L42.7431 20.5868L42.6727 20.5051L49.1069 13.4062C49.2359 13.5562 49.3288 13.6779 49.4348 13.7052Z" fill="white"/>
<path d="M22.4373 40.5526C21.6244 41.2517 20.8911 41.7283 20.1869 41.9783C20.2293 41.918 20.2601 41.8442 20.285 41.7635C20.0308 41.8517 19.7843 41.9214 19.5446 41.9852C18.775 42.1729 17.9659 42.0269 17.2839 41.6176C16.2189 40.9685 15.3837 40.2166 14.3 39.1212C14.0277 38.8456 13.7747 38.5652 13.5227 38.2721L13.3586 38.0813C13.1124 37.795 12.873 37.503 12.653 37.2061C11.7261 35.9639 11.1077 35.0256 10.6194 33.8687C10.3099 33.1389 10.2993 32.3181 10.5942 31.5784C10.6873 31.3441 10.799 31.1176 10.9251 30.8669C10.861 30.8746 10.8028 30.8891 10.7378 30.9094C11.0777 30.2495 11.6392 29.6006 12.4318 28.9189C12.7773 28.6218 13.1471 28.3393 13.5287 28.0704L23.4346 39.5882C23.1166 39.9447 22.7828 40.2554 22.4373 40.5526Z" fill="#4B545A"/>
<path d="M22.4373 40.5526C21.6244 41.2517 20.8911 41.7283 20.1869 41.9783C20.2293 41.918 20.2601 41.8442 20.285 41.7635C20.0308 41.8517 19.7843 41.9214 19.5446 41.9852C18.775 42.1729 17.9659 42.0269 17.2839 41.6176C16.2189 40.9685 15.3837 40.2166 14.3 39.1212C14.0277 38.8456 13.7747 38.5652 13.5227 38.2721L13.3586 38.0813C13.1124 37.795 12.873 37.503 12.653 37.2061C11.7261 35.9639 11.1077 35.0256 10.6194 33.8687C10.3099 33.1389 10.2993 32.3181 10.5942 31.5784C10.6873 31.3441 10.799 31.1176 10.9251 30.8669C10.861 30.8746 10.8028 30.8891 10.7378 30.9094C11.0777 30.2495 11.6392 29.6006 12.4318 28.9189C12.7773 28.6218 13.1471 28.3393 13.5287 28.0704L23.4346 39.5882C23.1166 39.9447 22.7828 40.2554 22.4373 40.5526Z" fill="#4388FC" fill-opacity="0.1"/>
<path d="M22.4373 40.5526C21.6244 41.2517 20.8911 41.7283 20.1869 41.9783C20.2293 41.918 20.2601 41.8442 20.285 41.7635C20.0308 41.8517 19.7843 41.9214 19.5446 41.9852C18.775 42.1729 17.9659 42.0269 17.2839 41.6176C16.2189 40.9685 15.3837 40.2166 14.3 39.1212C14.0277 38.8456 13.7747 38.5652 13.5227 38.2721L13.3586 38.0813C13.1124 37.795 12.873 37.503 12.653 37.2061C11.7261 35.9639 11.1077 35.0256 10.6194 33.8687C10.3099 33.1389 10.2993 32.3181 10.5942 31.5784C10.6873 31.3441 10.799 31.1176 10.9251 30.8669C10.861 30.8746 10.8028 30.8891 10.7378 30.9094C11.0777 30.2495 11.6392 29.6006 12.4318 28.9189C12.7773 28.6218 13.1471 28.3393 13.5287 28.0704L23.4346 39.5882C23.1166 39.9447 22.7828 40.2554 22.4373 40.5526Z" fill="url(#paint0_radial)" fill-opacity="0.77"/>
<path d="M15.4729 26.7541C14.838 27.2765 14.1827 27.8163 13.4596 28.4145C13.4054 28.4611 13.3395 28.4941 13.2687 28.5076C12.9522 28.5782 12.737 28.4787 12.5617 28.1789C12.3545 27.705 12.5359 27.2171 13.1339 26.6791L29.8413 11.6695C29.8549 11.6578 29.8684 11.6462 29.882 11.6345C29.881 11.6472 29.8734 11.6656 29.8657 11.6841L29.6563 12.208C29.6102 12.3188 29.5514 12.4286 29.4741 12.5307L27.0283 15.6065C25.2953 17.7846 23.6411 19.5748 21.9439 21.082C19.4317 23.4915 17.6005 25.0073 15.4729 26.7541Z" fill="#4B545A"/>
<path d="M15.4729 26.7541C14.838 27.2765 14.1827 27.8163 13.4596 28.4145C13.4054 28.4611 13.3395 28.4941 13.2687 28.5076C12.9522 28.5782 12.737 28.4787 12.5617 28.1789C12.3545 27.705 12.5359 27.2171 13.1338 26.6791L29.8413 11.6695C29.8549 11.6578 29.8684 11.6462 29.882 11.6345C29.881 11.6472 29.8734 11.6656 29.8657 11.6841L29.6563 12.208C29.6102 12.3188 29.5514 12.4286 29.4741 12.5307L27.0283 15.6065C25.2953 17.7846 23.6411 19.5748 21.9439 21.082C19.4317 23.4915 17.6005 25.0073 15.4729 26.7541Z" fill="#4388FC" fill-opacity="0.1"/>
<path d="M15.4729 26.7541C14.838 27.2765 14.1827 27.8163 13.4596 28.4145C13.4054 28.4611 13.3395 28.4941 13.2687 28.5076C12.9522 28.5782 12.737 28.4787 12.5617 28.1789C12.3545 27.705 12.5359 27.2171 13.1338 26.6791L29.8413 11.6695C29.8549 11.6578 29.8684 11.6462 29.882 11.6345C29.881 11.6472 29.8734 11.6656 29.8657 11.6841L29.6563 12.208C29.6102 12.3188 29.5514 12.4286 29.4741 12.5307L27.0283 15.6065C25.2953 17.7846 23.6411 19.5748 21.9439 21.082C19.4317 23.4915 17.6005 25.0073 15.4729 26.7541Z" fill="url(#paint1_radial)" fill-opacity="0.77"/>
<path d="M19.7377 20.7505C19.8748 21.4032 20.0681 21.8061 20.4986 22.4437L21.4999 21.5113C21.3322 20.7545 21.2749 20.1398 21.3419 19.2996L19.7377 20.7505Z" fill="#4B545A"/>
<path d="M28.2648 14.0569L27.9381 13.3894L29.8472 11.6763C29.8607 11.6647 29.8743 11.653 29.8878 11.6414C29.8869 11.654 29.8792 11.6725 29.8715 11.6909L29.6621 12.2149C29.616 12.3257 29.5573 12.4355 29.48 12.5375L28.2648 14.0569Z" fill="#4B545A"/>
<path d="M25.0151 37.8495C24.4036 38.3991 23.7718 38.9663 23.0722 39.5917C23.018 39.6383 22.9755 39.6985 22.9515 39.7666C22.8344 40.0689 22.9006 40.2965 23.1707 40.5147C23.6083 40.7905 24.1179 40.6842 24.7393 40.1734L42.0798 25.8999C42.0934 25.8883 42.1069 25.8766 42.1204 25.8649C42.1078 25.864 42.0884 25.8688 42.069 25.8736L41.5196 26.0023C41.4032 26.0313 41.2858 26.073 41.1734 26.1341L37.7468 28.097C35.3339 29.4846 33.3163 30.8523 31.5722 32.3049C28.8274 34.4166 27.0606 36.0073 25.0151 37.8495Z" fill="#4B545A"/>
<path d="M25.0153 37.8494C24.4037 38.3991 23.7719 38.9662 23.0723 39.5916C23.0181 39.6382 22.9756 39.6985 22.9517 39.7665C22.8345 40.0688 22.9007 40.2965 23.1708 40.5147C23.6084 40.7904 24.118 40.6841 24.7394 40.1734L42.0799 25.8998C42.0935 25.8882 42.107 25.8765 42.1206 25.8649C42.1079 25.8639 42.0885 25.8687 42.0691 25.8736L41.5198 26.0022C41.4033 26.0312 41.2859 26.0729 41.1735 26.134L37.7469 28.097C35.334 29.4846 33.3164 30.8522 31.5723 32.3048C28.8275 34.4165 27.0607 36.0072 25.0153 37.8494Z" fill="#4388FC" fill-opacity="0.1"/>
<path d="M25.0153 37.8494C24.4037 38.3991 23.7719 38.9662 23.0723 39.5916C23.0181 39.6382 22.9756 39.6985 22.9517 39.7665C22.8345 40.0688 22.9007 40.2965 23.1708 40.5147C23.6084 40.7904 24.118 40.6841 24.7394 40.1734L42.0799 25.8998C42.0935 25.8882 42.107 25.8765 42.1206 25.8649C42.1079 25.8639 42.0885 25.8687 42.0691 25.8736L41.5198 26.0022C41.4033 26.0312 41.2859 26.0729 41.1735 26.134L37.7469 28.097C35.334 29.4846 33.3164 30.8522 31.5723 32.3048C28.8275 34.4165 27.0607 36.0072 25.0153 37.8494Z" fill="url(#paint2_radial)" fill-opacity="0.77"/>
<path d="M31.5827 34.5368C30.9578 34.3035 30.5884 34.0522 30.0224 33.5311L31.0941 32.6806C31.8173 32.9597 32.4165 33.1083 33.2573 33.1677L31.5827 34.5368Z" fill="#4B545A"/>
<path d="M39.4766 27.1073L40.0878 27.5302L42.0672 25.8989C42.0807 25.8872 42.0943 25.8756 42.1078 25.8639C42.0952 25.863 42.0758 25.8678 42.0564 25.8726L41.507 26.0013C41.3906 26.0303 41.2732 26.072 41.1608 26.1331L39.4766 27.1073Z" fill="#4B545A"/>
<path d="M29.1056 12.7054C28.9782 12.8861 28.8775 12.9609 28.6924 13.0608L28.2059 12.4951L28.6191 12.1397L29.1056 12.7054Z" fill="#594F4F"/>
<path d="M28.586 12.3341L28.0111 12.8167C27.9502 12.8692 27.8608 12.8749 27.7877 12.831L26.0339 11.7784C25.9793 11.7424 25.9595 11.6646 25.9952 11.6101C26.0521 11.5256 26.1159 11.4352 26.2116 11.341C26.2735 11.276 26.3471 11.2245 26.4013 11.1779C26.5553 11.0692 26.7377 11.0072 26.9222 11.0026C27.0874 11.0028 27.2702 11.0234 27.4795 11.1161C27.7443 11.2322 28.0271 11.4513 28.2625 11.7113C28.3748 11.8282 28.5028 11.9907 28.6016 12.1192C28.6602 12.1874 28.647 12.2817 28.586 12.3341Z" fill="#594F4F"/>
<path d="M40.9395 26.4656C40.7418 26.5646 40.6528 26.6529 40.5263 26.821L41.0128 27.3867L41.426 27.0313L40.9395 26.4656Z" fill="#594F4F"/>
<path d="M41.2225 27.0403L40.6594 27.5366C40.5984 27.589 40.5794 27.6765 40.6118 27.7553L41.3901 29.6469C41.4176 29.7063 41.4916 29.7375 41.5507 29.7103C41.6428 29.6667 41.7417 29.6172 41.8492 29.5366C41.9228 29.4852 41.9847 29.4201 42.0389 29.3735C42.1694 29.2375 42.258 29.0665 42.2902 28.8846C42.3147 28.7213 42.3216 28.5375 42.2613 28.3167C42.1862 28.0374 42.0118 27.725 41.79 27.4534C41.6912 27.3249 41.5496 27.174 41.4374 27.0571C41.3787 26.989 41.2903 26.9821 41.2225 27.0403Z" fill="#594F4F"/>
<path d="M42.3097 5.91384C40.199 5.22742 38.4785 5.29619 36.4952 6.27878L37.3081 5.57962C37.7891 5.16595 38.3904 4.93332 39.0258 4.9322C40.2579 4.93964 41.2344 5.14319 42.3097 5.91384Z" fill="url(#paint3_linear)"/>
<path d="M42.3097 5.91384C40.199 5.22742 38.4785 5.29619 36.4952 6.27878L37.3081 5.57962C37.7891 5.16595 38.3904 4.93332 39.0258 4.9322C40.2579 4.93964 41.2344 5.14319 42.3097 5.91384Z" fill="url(#paint4_linear)"/>
<path d="M36.508 6.27997L37.3142 5.58664C37.7952 5.17297 38.3965 4.94034 39.0319 4.93922C40.2581 4.93984 41.2346 5.14339 42.3099 5.91405C40.1992 5.22763 38.4856 5.29056 36.508 6.27997Z" fill="#D5E3F0"/>
<path d="M49.5779 14.3647C49.9408 16.5544 49.6153 18.2452 48.3471 20.0592L49.16 19.36C49.641 18.9464 49.9609 18.3866 50.0571 17.7585C50.24 16.546 50.179 15.5432 49.5779 14.3647Z" fill="url(#paint5_linear)"/>
<path d="M49.5779 14.3647C49.9408 16.5544 49.6153 18.2452 48.3471 20.0592L49.16 19.36C49.641 18.9464 49.9609 18.3866 50.0571 17.7585C50.24 16.546 50.179 15.5432 49.5779 14.3647Z" fill="url(#paint6_linear)"/>
<path d="M48.3538 20.0534L49.1599 19.3601C49.6409 18.9464 49.9609 18.3866 50.0571 17.7585C50.2467 16.5402 50.1857 15.5374 49.5846 14.3589C49.9407 16.5544 49.6221 18.2394 48.3538 20.0534Z" fill="#D5E3F0"/>
<path d="M7.39526 35.6696C6.5144 33.878 6.55971 32.5467 7.20255 31.2113C7.40098 30.8391 7.58403 30.5038 7.76526 30.1938L7.84184 30.365C8.0923 30.944 8.07688 31.5975 7.80744 32.1612C7.36667 33.0739 7.33732 33.6564 7.66028 34.9911C7.7237 35.2567 7.61516 35.5279 7.39526 35.6696Z" fill="#D8394C"/>
<path d="M14.9859 44.4952C16.6254 45.6342 17.9486 45.7886 19.3651 45.3529C19.7628 45.2124 20.1217 45.0815 20.4554 44.9487L20.2975 44.8474C19.7625 44.5131 19.114 44.4306 18.5164 44.6126C17.5481 44.9119 16.9677 44.8538 15.6964 44.3347C15.4432 44.2323 15.1589 44.299 14.9859 44.4952Z" fill="#D8394C"/>
<path d="M38.1446 17.4872C39.802 19.5239 40.7841 21.1454 41.3307 22.7265C41.5671 23.4124 41.5006 24.1573 41.1566 24.7851L36.2744 27.5494C35.9827 27.7173 35.6842 27.891 35.3984 28.0657C33.9992 25.5343 32.8407 23.8037 31.557 22.3111C30.2558 20.7982 28.7229 19.4133 26.6238 17.8632C26.8393 17.6068 27.0615 17.3445 27.2653 17.0744L30.7349 12.6675C31.4071 12.4214 32.1535 12.4671 32.7964 12.8035C34.2837 13.5873 35.7274 14.8 37.4999 16.7376L38.1446 17.4872ZM38.3208 17.3358L37.676 16.5861C35.9513 14.6904 34.4734 13.4242 32.913 12.5965C32.1786 12.2084 31.3292 12.1801 30.6028 12.4729L27.0907 16.94C26.8319 17.2693 26.5671 17.5918 26.2965 17.9076C28.4629 19.4946 30.0386 20.9019 31.3926 22.4763C32.817 24.1324 33.9866 25.9719 35.3291 28.4099C35.6817 28.1895 36.0402 27.9761 36.4046 27.7694L41.3402 24.971C41.7324 24.2898 41.8374 23.4526 41.5636 22.6684C40.9679 20.9754 39.9371 19.3247 38.3208 17.3358Z" fill="black"/>
<path d="M41.3284 24.9575L36.3928 27.7559C36.0285 27.9626 35.67 28.1761 35.3173 28.3964C32.7185 23.6481 30.7257 21.1529 26.2906 17.9009C26.5612 17.5852 26.8259 17.2626 27.0848 16.9333L30.5901 12.472C31.3224 12.1861 32.1659 12.2076 32.9003 12.5956C34.4733 13.4243 35.9386 14.6895 37.6633 16.5852L38.3081 17.3349C39.9244 19.3239 40.9552 20.9746 41.5333 22.6471C41.8256 23.4391 41.7207 24.2763 41.3284 24.9575Z" fill="#4B545A"/>
<path d="M41.3284 24.9575L36.3928 27.7558C36.0285 27.9625 35.67 28.176 35.3173 28.3963C32.7185 23.648 30.7257 21.1528 26.2906 17.9008C26.5612 17.5851 26.8259 17.2626 27.0848 16.9332L30.5901 12.472C31.3224 12.186 32.1659 12.2075 32.9003 12.5955C34.4733 13.4242 35.9386 14.6894 37.6633 16.5852L38.3081 17.3349C39.9244 19.3238 40.9552 20.9745 41.5333 22.6471C41.8256 23.4391 41.7207 24.2763 41.3284 24.9575Z" fill="#4388FC" fill-opacity="0.1"/>
<path d="M41.3284 24.9575L36.3928 27.7558C36.0285 27.9625 35.67 28.176 35.3173 28.3963C32.7185 23.648 30.7257 21.1528 26.2906 17.9008C26.5612 17.5851 26.8259 17.2626 27.0848 16.9332L30.5901 12.472C31.3224 12.186 32.1659 12.2075 32.9003 12.5955C34.4733 13.4242 35.9386 14.6894 37.6633 16.5852L38.3081 17.3349C39.9244 19.3238 40.9552 20.9745 41.5333 22.6471C41.8256 23.4391 41.7207 24.2763 41.3284 24.9575Z" fill="url(#paint7_radial)" fill-opacity="0.77"/>
<path d="M41.779 24.7004C42.9448 24.0416 43.4776 22.6467 43.0355 21.3789C42.4515 19.6996 41.4198 18.0615 39.8102 16.0667L39.1654 15.317C37.4407 13.4213 35.9628 12.1551 34.4024 11.3274C33.2151 10.7005 31.7562 11.0186 30.9303 12.0727L30.6087 12.4798C31.3409 12.1939 32.1844 12.2154 32.9188 12.6034C34.4919 13.4321 35.9571 14.6973 37.6819 16.593L38.3266 17.3427C39.943 19.3316 40.9738 20.9824 41.5519 22.6549C41.8256 23.4391 41.7266 24.2831 41.3284 24.9575L41.779 24.7004Z" fill="#4B545A"/>
<path d="M49.4975 13.5448C49.4907 13.5507 49.4537 13.535 49.3892 13.4601L43.2347 6.30407C43.1702 6.2291 43.1671 6.18436 43.1671 6.18436C43.1738 6.17854 43.2262 6.15721 43.3507 6.19238L43.4441 6.21876C44.0054 6.3644 44.417 6.47288 44.9741 6.76439C45.4228 7.14911 45.8679 7.58441 46.322 8.07126L48.098 10.1363C48.5114 10.6581 48.8752 11.1633 49.1885 11.6645C49.1885 11.6645 49.1885 11.6645 49.1944 11.6714C49.3992 12.2658 49.4449 12.6889 49.5049 13.2657L49.517 13.362C49.5332 13.4904 49.5042 13.539 49.4975 13.5448Z" fill="#4B545A"/>
<path d="M14.5027 27.5173L24.1156 38.6943C24.1156 38.6943 23.3963 39.4698 22.1335 39.7469C19.3574 40.356 12.015 31.6132 13.1361 29.2855C13.6969 28.1212 14.5027 27.5173 14.5027 27.5173Z" fill="white" fill-opacity="0.23"/>
</g>
<defs>
<filter id="filter0_d" x="-1" y="0" width="60.0414" height="57.495" filterUnits="userSpaceOnUse" color-interpolation-filters="sRGB">
<feFlood flood-opacity="0" result="BackgroundImageFix"/>
<feColorMatrix in="SourceAlpha" type="matrix" values="0 0 0 0 0 0 0 0 0 0 0 0 0 0 0 0 0 0 127 0" result="hardAlpha"/>
<feOffset dy="4"/>
<feGaussianBlur stdDeviation="2"/>
<feColorMatrix type="matrix" values="0 0 0 0 0 0 0 0 0 0 0 0 0 0 0 0 0 0 0.3 0"/>
<feBlend mode="normal" in2="BackgroundImageFix" result="effect1_dropShadow"/>
<feBlend mode="normal" in="SourceGraphic" in2="effect1_dropShadow" result="shape"/>
</filter>
<radialGradient id="paint0_radial" cx="0" cy="0" r="1" gradientUnits="userSpaceOnUse" gradientTransform="translate(19.0986 33.8204) rotate(139.303) scale(7.63961 25.3951)">
<stop stop-color="white" stop-opacity="0.8"/>
<stop offset="1" stop-color="white" stop-opacity="0.01"/>
</radialGradient>
<radialGradient id="paint1_radial" cx="0" cy="0" r="1" gradientUnits="userSpaceOnUse" gradientTransform="translate(11.0154 29.2804) rotate(139.336) scale(26.1641 3.34536)">
<stop stop-color="white" stop-opacity="0.8"/>
<stop offset="1" stop-color="white" stop-opacity="0.01"/>
</radialGradient>
<radialGradient id="paint2_radial" cx="0" cy="0" r="1" gradientUnits="userSpaceOnUse" gradientTransform="translate(21.8691 41.9004) rotate(139.336) scale(26.1641 3.35186)">
<stop stop-color="white" stop-opacity="0.8"/>
<stop offset="1" stop-color="white" stop-opacity="0.01"/>
</radialGradient>
<linearGradient id="paint3_linear" x1="38.2635" y1="4.76477" x2="40.5547" y2="7.42876" gradientUnits="userSpaceOnUse">
<stop offset="0.1548" stop-color="#A1A1A1"/>
<stop offset="0.9205" stop-color="white"/>
</linearGradient>
<linearGradient id="paint4_linear" x1="38.2635" y1="4.76477" x2="40.5547" y2="7.42876" gradientUnits="userSpaceOnUse">
<stop stop-color="#333333"/>
<stop offset="0.1883"/>
<stop offset="0.3849" stop-color="#333333"/>
<stop offset="0.5983"/>
<stop offset="0.8033" stop-color="#333333"/>
<stop offset="1"/>
</linearGradient>
<linearGradient id="paint5_linear" x1="50.1126" y1="18.5419" x2="47.8214" y2="15.8779" gradientUnits="userSpaceOnUse">
<stop offset="0.1548" stop-color="#A1A1A1"/>
<stop offset="0.9205" stop-color="white"/>
</linearGradient>
<linearGradient id="paint6_linear" x1="50.1126" y1="18.5419" x2="47.8214" y2="15.8779" gradientUnits="userSpaceOnUse">
<stop stop-color="#333333"/>
<stop offset="0.1883"/>
<stop offset="0.3849" stop-color="#333333"/>
<stop offset="0.5983"/>
<stop offset="0.8033" stop-color="#333333"/>
<stop offset="1"/>
</linearGradient>
<radialGradient id="paint7_radial" cx="0" cy="0" r="1" gradientUnits="userSpaceOnUse" gradientTransform="translate(30.3193 23.7223) rotate(139.961) scale(10.3627 25.9614)">
<stop stop-color="white" stop-opacity="0.8"/>
<stop offset="1" stop-color="white" stop-opacity="0.01"/>
</radialGradient>
</defs>
</svg>
